<svg xmlns="http://www.w3.org/2000/svg" viewBox="0 0 30 29" fill="none">
  <circle
    cx="10.0001"
    cy="9.80007"
    r="3"
    stroke="#222222"
    stroke-width="1.2"
    stroke-linecap="round"
  />
  <path
    d="M14.5216 10.4C14.8399 9.84879 15.3641 9.44656 15.9789 9.28181C16.5938 9.11707 17.2489 9.20332 17.8001 9.52158C18.3513 9.83984 18.7536 10.364 18.9183 10.9789C19.0831 11.5937 18.9968 12.2488 18.6786 12.8C18.3603 13.3513 17.8361 13.7535 17.2213 13.9183C16.6064 14.083 15.9513 13.9968 15.4001 13.6785C14.8489 13.3602 14.4466 12.836 14.2819 12.2212C14.1171 11.6064 14.2034 10.9513 14.5216 10.4L14.5216 10.4Z"
    stroke="#222222"
    stroke-width="1.2"
  />
  <path
    d="M16.4865 21.2084L17.079 21.114L16.4865 21.2084ZM15.4 21.8001H4.59999V23.0001H15.4V21.8001ZM4.10603 21.3029C4.26182 20.3261 4.63643 18.9378 5.51672 17.8053C6.37517 16.7009 7.74242 15.8001 9.99999 15.8001V14.6001C7.36127 14.6001 5.64841 15.6805 4.56927 17.0689C3.51197 18.4291 3.09148 20.045 2.92101 21.114L4.10603 21.3029ZM9.99999 15.8001C12.2576 15.8001 13.6248 16.7009 14.4833 17.8053C15.3636 18.9378 15.7382 20.3261 15.894 21.3029L17.079 21.114C16.9085 20.045 16.488 18.4291 15.4307 17.0689C14.3516 15.6805 12.6387 14.6001 9.99999 14.6001V15.8001ZM4.59999 21.8001C4.24989 21.8001 4.06833 21.5393 4.10603 21.3029L2.92101 21.114C2.74995 22.1865 3.62461 23.0001 4.59999 23.0001V21.8001ZM15.4 23.0001C16.3754 23.0001 17.25 22.1865 17.079 21.114L15.894 21.3029C15.9317 21.5393 15.7501 21.8001 15.4 21.8001V23.0001Z"
    fill="#222222"
  />
  <path
    d="M20.0741 22.4001V23.0001V22.4001ZM21.1559 21.0996L20.5739 21.2453L21.1559 21.0996ZM14.5605 16.977L14.239 16.4704L13.6208 16.8627L14.1269 17.3918L14.5605 16.977ZM16.4866 21.2085L17.0791 21.114L16.4866 21.2085ZM20.0741 21.8001L15.4001 21.8001L15.4001 23.0001L20.0741 23.0001V21.8001ZM20.5739 21.2453C20.6385 21.5032 20.4491 21.8001 20.0741 21.8001V23.0001C21.119 23.0001 22.0183 22.0734 21.738 20.9538L20.5739 21.2453ZM16.6001 17.0001C17.8334 17.0001 18.6995 17.6033 19.3341 18.4484C19.9813 19.3104 20.3614 20.3968 20.5739 21.2453L21.738 20.9538C21.5086 20.0379 21.0795 18.7745 20.2937 17.7279C19.4952 16.6644 18.3043 15.8001 16.6001 15.8001V17.0001ZM14.882 17.4836C15.3498 17.1867 15.9115 17.0001 16.6001 17.0001V15.8001C15.6785 15.8001 14.8945 16.0544 14.239 16.4704L14.882 17.4836ZM14.1269 17.3918C15.2637 18.58 15.7178 20.1976 15.8941 21.303L17.0791 21.114C16.8877 19.9142 16.379 18.0099 14.994 16.5622L14.1269 17.3918ZM15.8941 21.303C15.9318 21.5393 15.7502 21.8001 15.4001 21.8001V23.0001C16.3755 23.0001 17.2501 22.1865 17.0791 21.114L15.8941 21.303Z"
    fill="#222222"
  />
  <rect
    x="19.9001"
    y="6.50007"
    width="5.4"
    height="0.6"
    rx="0.3"
    stroke="#222222"
    stroke-width="0.6"
    stroke-linecap="round"
  />
  <rect
    x="22.9001"
    y="4.10005"
    width="5.4"
    height="0.6"
    rx="0.3"
    transform="rotate(90 22.9001 4.10005)"
    stroke="#222222"
    stroke-width="0.6"
    stroke-linecap="round"
  />
</svg>
