<svg xmlns="http://www.w3.org/2000/svg" viewBox="0 0 32 32" fill="none">
  <path d="M10.6668 17.3333L16.5611 22.0488C16.989 22.3911 17.6128 22.3253 17.9598 21.9012L29.3335 8" stroke="#33363F" stroke-width="2" stroke-linecap="round"/>
  <path fill-rule="evenodd" clip-rule="evenodd" d="M14.1352 16.7473L20.774 8.63327C21.1237 8.20582 21.0607 7.5758 20.6332 7.22607C20.2058 6.87635 19.5758 6.93935 19.226 7.36679L12.5987 15.4669L14.1352 16.7473ZM10.9689 20.6173L9.43236 19.3369L7.83309 21.2915L3.26667 17.8667C2.82484 17.5353 2.19804 17.6249 1.86667 18.0667C1.5353 18.5085 1.62484 19.1353 2.06667 19.4667L6.63309 22.8915C7.49048 23.5346 8.70235 23.3875 9.38101 22.558L10.9689 20.6173Z" fill="#33363F"/>
</svg>