<svg xmlns="http://www.w3.org/2000/svg" viewBox="0 0 50 50" fill="none">
  <path d="M10.4167 26.5826C10.4167 23.754 10.4167 22.3396 10.9885 21.0964C11.5603 19.8532 12.6341 18.9328 14.7818 17.0919L16.8651 15.3062C20.747 11.9789 22.688 10.3152 25 10.3152C27.312 10.3152 29.253 11.9789 33.1349 15.3062L35.2182 17.0919C37.3659 18.9328 38.4398 19.8532 39.0116 21.0964C39.5834 22.3396 39.5834 23.754 39.5834 26.5826V35.4168C39.5834 39.3452 39.5834 41.3093 38.363 42.5297C37.1426 43.7501 35.1784 43.7501 31.25 43.7501H18.75C14.8216 43.7501 12.8575 43.7501 11.6371 42.5297C10.4167 41.3093 10.4167 39.3452 10.4167 35.4168V26.5826Z" stroke="#222222"/>
  <path d="M30.2084 43.75V32.25C30.2084 31.6977 29.7606 31.25 29.2084 31.25H20.7917C20.2394 31.25 19.7917 31.6977 19.7917 32.25V43.75" stroke="#222222" stroke-linecap="round" stroke-linejoin="round"/>
</svg>