<svg xmlns="http://www.w3.org/2000/svg" viewBox="0 0 29 29" fill="none">
  <path d="M11.6 17.6L11.6 14" stroke="#222222" stroke-width="1.2" stroke-linecap="round"/>
  <path d="M17.6 17.6L17.6 14" stroke="#222222" stroke-width="1.2" stroke-linecap="round"/>
  <path d="M3.80005 8.00006H25.4V8.00006C23.7147 8.00006 22.872 8.00006 22.2667 8.40453C22.0046 8.57963 21.7796 8.80464 21.6045 9.06669C21.2 9.67203 21.2 10.5147 21.2 12.2001V18.8001C21.2 21.0628 21.2 22.1942 20.4971 22.8971C19.7942 23.6001 18.6628 23.6001 16.4 23.6001H12.8C10.5373 23.6001 9.40594 23.6001 8.70299 22.8971C8.00005 22.1942 8.00005 21.0628 8.00005 18.8001V12.2001C8.00005 10.5147 8.00005 9.67203 7.59558 9.06669C7.42048 8.80464 7.19547 8.57963 6.93342 8.40453C6.32808 8.00006 5.4854 8.00006 3.80005 8.00006V8.00006Z" stroke="#222222" stroke-width="1.2" stroke-linecap="round"/>
  <path d="M11.6 4.40036C11.6 4.40036 12.2 3.20007 14.6 3.20007C17 3.20007 17.6 4.40007 17.6 4.40007" stroke="#222222" stroke-width="1.2" stroke-linecap="round"/>
</svg>