<svg xmlns="http://www.w3.org/2000/svg" viewBox="0 0 17 11" class="currentClass">
  <path fill-rule="evenodd" clip-rule="evenodd" d="M1.16539 0.542893C0.872498 0.835786 0.872498 1.30719 0.872498 2.25V8.75C0.872498 9.69281 0.872498 10.1642 1.16539 10.4571C1.45828 10.75 1.92969 10.75 2.8725 10.75H10.9818C12.0297 10.75 12.5537 10.75 12.9958 10.5133C13.438 10.2767 13.7287 9.84073 14.31 8.9688L15.1433 7.7188C15.8603 6.6433 16.2188 6.10555 16.2188 5.5C16.2188 4.89445 15.8603 4.3567 15.1433 3.2812L14.31 2.0312C13.7287 1.15927 13.438 0.723302 12.9958 0.486651C12.5537 0.25 12.0297 0.25 10.9818 0.25H2.8725C1.92969 0.25 1.45828 0.25 1.16539 0.542893ZM11.3725 7.25C12.339 7.25 13.1225 6.4665 13.1225 5.5C13.1225 4.5335 12.339 3.75 11.3725 3.75C10.406 3.75 9.6225 4.5335 9.6225 5.5C9.6225 6.4665 10.406 7.25 11.3725 7.25Z" />
</svg>