<svg xmlns="http://www.w3.org/2000/svg" style="display: none;">
  <symbol id="icon-home" viewBox="0 0 50 50" fill="none" stroke="#222222" stroke-linecap="round" stroke-linejoin="round" preserveAspectRatio="xMidYMid meet">
    <title>Home Icon</title>
    <path d="M10.4167 26.5825C10.4167 23.7539 10.4167 22.3395 10.9885 21.0963C11.5603 19.8531 12.6341 18.9327 14.7818 17.0918L16.8651 15.3061C20.747 11.9787 22.688 10.3151 25 10.3151C27.312 10.3151 29.253 11.9787 33.1349 15.3061L35.2182 17.0918C37.3659 18.9327 38.4398 19.8531 39.0116 21.0963C39.5834 22.3395 39.5834 23.7539 39.5834 26.5825V35.4167C39.5834 39.345 39.5834 41.3092 38.363 42.5296C37.1426 43.75 35.1784 43.75 31.25 43.75H18.75C14.8216 43.75 12.8575 43.75 11.6371 42.5296C10.4167 41.3092 10.4167 39.345 10.4167 35.4167V26.5825Z"/>
    <path d="M30.2084 43.75V32.25C30.2084 31.6977 29.7606 31.25 29.2084 31.25H20.7917C20.2394 31.25 19.7917 31.6977 19.7917 32.25V43.75"/>
  </symbol>

  <symbol id="icon-notification" viewBox="0 0 50 50" fill="none" stroke="#222222" preserveAspectRatio="xMidYMid meet">
    <title>Notification Icon</title>
    <rect x="8.33331" y="12.5" width="33.3333" height="25" rx="2" />
    <path d="M8.33331 18.75L24.1056 26.6361C24.6686 26.9176 25.3314 26.9176 25.8944 26.6361L41.6666 18.75" />
  </symbol>

  <symbol id="icon-clock" viewBox="0 0 48 48" fill="none" stroke="#222222" stroke-linecap="round" preserveAspectRatio="xMidYMid meet">
    <title>Clock Icon</title>
    <circle cx="24" cy="24" r="17.5"/>
    <path d="M10 5.60769C8.17577 6.66091 6.66092 8.17577 5.6077 10"/>
    <path d="M38 5.60769C39.8242 6.66091 41.3391 8.17577 42.3923 10"/>
    <path d="M24 13V23.75C24 23.8881 24.1119 24 24.25 24H33"/>
  </symbol>

  <symbol id="icon-space-mark" viewBox="0 0 50 50" fill="none" stroke="#222222" preserveAspectRatio="xMidYMid meet">
    <title>Space Mark Icon</title>
    <path d="M8.33331 18.75C8.33331 12.8574 8.33331 9.91116 10.1639 8.08058C11.9945 6.25 14.9408 6.25 20.8333 6.25H29.1666C35.0592 6.25 38.0055 6.25 39.8361 8.08058C41.6666 9.91116 41.6666 12.8574 41.6666 18.75V32.9742C41.6666 38.5644 41.6666 41.3595 39.9077 42.2144C38.1488 43.0693 35.9509 41.3424 31.5553 37.8887L30.1485 36.7833C27.6769 34.8414 26.4411 33.8704 25 33.8704C23.5589 33.8704 22.3231 34.8414 19.8515 36.7834L18.4447 37.8887C14.049 41.3424 11.8512 43.0693 10.0923 42.2144C8.33331 41.3595 8.33331 38.5644 8.33331 32.9742V18.75Z"/>
  </symbol>


  <symbol id="icon-special-project" viewBox="0 0 19 19" fill="none" stroke="#33363F" stroke-width="1.5" stroke-linejoin="round">
    <title>Special Project MenuIcon</title>
    <rect x="3.16669" y="3.95837" width="12.6667" height="3.95833" rx="1"/>
    <rect x="3.16669" y="11.0834" width="12.6667" height="3.95833" rx="1"/>
  </symbol>

  <symbol id="icon-normal-project" viewBox="0 0 21 21" fill="none" stroke="#33363F" stroke-width="2" stroke-linecap="round">
    <title>Noram Project Menu Icon</title>
    <path d="M4.375 6.125H16.625"/>
    <path d="M4.375 10.5H16.625"/>
    <path d="M4.375 14.875H16.625"/>
  </symbol>

  <symbol id="icon-trash-bin" viewBox="0 0 24 24" fill="none" stroke="#222222" stroke-linecap="round">
    <title>Trash Bin Icon</title>
    <path d="M10.5 15.5L9.5 12" stroke="#222222" stroke-linecap="round"/>
    <path d="M8.5 4.5L6.5 7.5M15.5 4.5L17.5 7.5" stroke="#222222" stroke-linecap="round"/>
    <path d="M13.5 15.5L14.5 12" stroke="#222222" stroke-linecap="round"/>
    <path d="M4.5 9.5V9.5C5.08429 9.5 5.59018 9.90581 5.71693 10.4762L6.80394 15.3677C7.13763 16.8694 7.30448 17.6202 7.85289 18.0601C8.4013 18.5 9.17043 18.5 10.7087 18.5H13.2913C14.8296 18.5 15.5987 18.5 16.1471 18.0601C16.6955 17.6202 16.8624 16.8694 17.1961 15.3677L18.2831 10.4762C18.4098 9.90581 18.9157 9.5 19.5 9.5V9.5"/>
    <path d="M19.5 9.5H4.5C3.94772 9.5 3.5 9.05228 3.5 8.5C3.5 7.94772 3.94772 7.5 4.5 7.5H19.5C20.0523 7.5 20.5 7.94772 20.5 8.5C20.5 9.05228 20.0523 9.5 19.5 9.5Z"/>
  </symbol>

  <symbol id="icon-cancel" viewBox="0 0 23 23" fill="none">
    <title>Cancel Icon</title>
    <circle cx="11.5" cy="11.5" r="8.625" fill="#7E869E" fill-opacity="0.25"/>
    <path d="M8.625 8.625L14.375 14.375" stroke="#222222" stroke-width="1.2" stroke-linecap="round"/>
    <path d="M14.375 8.625L8.625 14.375" stroke="#222222" stroke-width="1.2" stroke-linecap="round"/>
  </symbol>

  <symbol id="icon-link" viewBox="0 0 30 29" fill="none" stroke="#222222" stroke-linecap="round" stroke-linejoin="round">
    <title>Link</title>
    <path d="M17.3999 12.2001L12.5999 17.0001"/>
    <path d="M19.7999 15.8001L22.1999 13.4001C23.8567 11.7432 23.8567 9.05694 22.1999 7.40009V7.40009C20.543 5.74323 17.8567 5.74323 16.1999 7.40009L13.7999 9.80009M10.1999 13.4001L7.7999 15.8001C6.14304 17.4569 6.14304 20.1432 7.7999 21.8001V21.8001C9.45675 23.4569 12.143 23.4569 13.7999 21.8001L16.1999 19.4001" stroke-width="1.2"/>
  </symbol>

  <symbol id="icon-double-check" viewBox="0 0 32 32" fill="none">
    <path d="M10.6668 17.3333L16.5611 22.0488C16.989 22.3911 17.6128 22.3253 17.9598 21.9012L29.3335 8" stroke="#33363F" stroke-width="2" stroke-linecap="round"/>
    <path fill-rule="evenodd" clip-rule="evenodd" d="M14.1352 16.7473L20.774 8.63327C21.1237 8.20582 21.0607 7.5758 20.6332 7.22607C20.2058 6.87635 19.5758 6.93935 19.226 7.36679L12.5987 15.4669L14.1352 16.7473ZM10.9689 20.6173L9.43236 19.3369L7.83309 21.2915L3.26667 17.8667C2.82484 17.5353 2.19804 17.6249 1.86667 18.0667C1.5353 18.5085 1.62484 19.1353 2.06667 19.4667L6.63309 22.8915C7.49048 23.5346 8.70235 23.3875 9.38101 22.558L10.9689 20.6173Z" fill="#33363F"/>
  </symbol>
</svg>




